<svg width="19" height="16" viewBox="0 0 19 16" fill="none" xmlns="http://www.w3.org/2000/svg">
<path d="M12.2708 3.12195C13.1417 3.12195 13.8542 2.41951 13.8542 1.56098C13.8542 0.702439 13.1417 0 12.2708 0C11.4 0 10.6875 0.702439 10.6875 1.56098C10.6875 2.41951 11.4 3.12195 12.2708 3.12195ZM3.95833 8.19512C1.74167 8.19512 0 9.9122 0 12.0976C0 14.2829 1.74167 16 3.95833 16C6.175 16 7.91667 14.2829 7.91667 12.0976C7.91667 9.9122 6.175 8.19512 3.95833 8.19512ZM3.95833 14.8293C2.45417 14.8293 1.1875 13.5805 1.1875 12.0976C1.1875 10.6146 2.45417 9.36585 3.95833 9.36585C5.4625 9.36585 6.72917 10.6146 6.72917 12.0976C6.72917 13.5805 5.4625 14.8293 3.95833 14.8293ZM8.55 7.02439L10.45 5.15122L11.0833 5.77561C12.1125 6.79024 13.4583 7.41463 15.1208 7.41463V5.85366C13.9333 5.85366 12.9833 5.38537 12.2708 4.68293L10.7667 3.2C10.3708 2.8878 9.975 2.73171 9.5 2.73171C9.025 2.73171 8.62917 2.8878 8.39167 3.2L6.175 5.38537C5.85833 5.69756 5.7 6.0878 5.7 6.47805C5.7 6.94634 5.85833 7.33659 6.175 7.57073L8.70833 9.7561V13.6585H10.2917V8.81951L8.55 7.02439ZM15.0417 8.19512C12.825 8.19512 11.0833 9.9122 11.0833 12.0976C11.0833 14.2829 12.825 16 15.0417 16C17.2583 16 19 14.2829 19 12.0976C19 9.9122 17.2583 8.19512 15.0417 8.19512ZM15.0417 14.8293C13.5375 14.8293 12.2708 13.5805 12.2708 12.0976C12.2708 10.6146 13.5375 9.36585 15.0417 9.36585C16.5458 9.36585 17.8125 10.6146 17.8125 12.0976C17.8125 13.5805 16.5458 14.8293 15.0417 14.8293Z" fill="#ACABAB"/>
</svg>
